<svg id="Layer_1" data-name="Layer 1" xmlns="http://www.w3.org/2000/svg" viewBox="0 0 232.85 35.75"><defs><style>.cls-1{fill:#fff;}.cls-2{fill:#2d3826;}.cls-3{fill:#4f7e48;}</style></defs><title>Artboard 1</title><rect class="cls-1" x="-33.55" y="-129.21" width="300" height="300"/><g id="ce2d60e5-2a33-484d-bb5e-1854740fa2de"><path class="cls-2" d="M68.41,26.92l-1.16-5.16H61.66L60.5,26.92H58.75l3.71-16.58h4l3.71,16.58ZM62,20.24h4.93L65,11.86H63.88Zm19.52-5.16h1.77L80.39,26.92H77L74.15,15.08h1.77L78.29,25.4h.85Zm12.08-.29h0a4.4,4.4,0,0,1,3.65,1.62h0a6.85,6.85,0,0,1,1.27,4.3h0c0,.31,0,.54,0,.69H90a5,5,0,0,0,1,3.2h0a3.12,3.12,0,0,0,2.47,1h0a3.65,3.65,0,0,0,1.91-.49h0a3.76,3.76,0,0,0,1.3-1.3h0l1.54.83h0a5.29,5.29,0,0,1-2,1.83h0a5.68,5.68,0,0,1-2.75.67h0a5.9,5.9,0,0,1-2.68-.62h0A4.6,4.6,0,0,1,88.9,24.5h0A7.34,7.34,0,0,1,88.15,21h0a7.29,7.29,0,0,1,.77-3.55h0a4.6,4.6,0,0,1,2-2h0a5.84,5.84,0,0,1,2.68-.63Zm-3.54,5.09h6.56a4.49,4.49,0,0,0-.84-2.59h0a2.7,2.7,0,0,0-2.25-1h0a3.32,3.32,0,0,0-2.32.85h0a4.19,4.19,0,0,0-1.15,2.7Zm21.16-3.48h0a3.53,3.53,0,0,0-2.38.83h0a4.19,4.19,0,0,0-1.34,1.89h0V25.4h4.14v1.52h-9.21V25.4h3.38V16.6h-3.38V15.08h4.77l.23,1.79h0a4.71,4.71,0,0,1,1.73-1.52h0a5.17,5.17,0,0,1,2.42-.56h0a4.27,4.27,0,0,1,1.84.39h0l-.57,1.54h0a1.34,1.34,0,0,0-.55-.2h0a4,4,0,0,0-1.08-.12Zm16.17,9.69-1.16,1.12-1.47-1.47h0a5.46,5.46,0,0,1-1.65,1h0a6.1,6.1,0,0,1-2.38.42h0a5.3,5.3,0,0,1-3.43-.94h0a3.61,3.61,0,0,1-1.16-2.93h0a3.46,3.46,0,0,1,1.22-2.93h0a6.45,6.45,0,0,1,3.89-.93h3v-1h0a1.75,1.75,0,0,0-.76-1.59h0a4,4,0,0,0-2.21-.49h0a4.07,4.07,0,0,0-3.2,1.05h0l-1.17-1.13h0a4.71,4.71,0,0,1,1.8-1.05h0a8.24,8.24,0,0,1,2.72-.41h0a5.75,5.75,0,0,1,3.28.83h0A2.75,2.75,0,0,1,125.93,18h0v6.61Zm-9.54-2.79h0a2,2,0,0,0,.8,1.83h0a4.41,4.41,0,0,0,2.47.54h0a4.25,4.25,0,0,0,1.79-.41h0a3.78,3.78,0,0,0,1.35-1h0V21H122a13.65,13.65,0,0,0-2.55.18h0a2,2,0,0,0-1.25.68h0a2.52,2.52,0,0,0-.36,1.49ZM138,25.43h0a3.24,3.24,0,0,1,2.15.63h0a2.07,2.07,0,0,1,.74,1.69h0a3.12,3.12,0,0,1-.54,1.76h0a3.59,3.59,0,0,1-1.71,1.33h0a7.19,7.19,0,0,1-3,.53h0a8.43,8.43,0,0,1-4-.75h0a2.32,2.32,0,0,1-1.36-2.11h0a2.89,2.89,0,0,1,1.21-2.28h0a1.77,1.77,0,0,1-.49-1.31h0a3,3,0,0,1,1.26-2.28h0a3.89,3.89,0,0,1-1.69-3.55h0A3.81,3.81,0,0,1,132,15.77h0a5.94,5.94,0,0,1,3.53-1h0a5.54,5.54,0,0,1,3.54,1h0l1.55-1.54,1.1,1.05L140,17h0a4.88,4.88,0,0,1,.41,2.1h0a3.77,3.77,0,0,1-1.45,3.3h0a6,6,0,0,1-3.44,1h0a7.86,7.86,0,0,1-2.08-.25h0a2.47,2.47,0,0,0-.68,1.47h0c0,.53.36.8,1.07.8h0l.66,0H138Zm-2.47-9.12h0a3.65,3.65,0,0,0-2.4.61h0a2.84,2.84,0,0,0-.69,2.17h0a2.64,2.64,0,0,0,.74,2.13h0a3.61,3.61,0,0,0,2.35.62h0a3.6,3.6,0,0,0,2.34-.62h0a2.68,2.68,0,0,0,.74-2.13h0a4,4,0,0,0-.29-1.71h0a1.66,1.66,0,0,0-.95-.83h0a5.53,5.53,0,0,0-1.84-.24Zm3.55,11.62h0a.83.83,0,0,0-.37-.71h0a2.37,2.37,0,0,0-1.37-.28h-3.5a4.46,4.46,0,0,1-1.17-.14h0a2.46,2.46,0,0,0-.47,1.37h0a1.33,1.33,0,0,0,.07.47h0c.35.86,1.48,1.29,3.41,1.29h0a4.54,4.54,0,0,0,2.61-.57h0a1.69,1.69,0,0,0,.79-1.43Zm11.35-13.14h0a4.41,4.41,0,0,1,3.66,1.62h0a6.85,6.85,0,0,1,1.27,4.3h0c0,.31,0,.54,0,.69h-8.51a5,5,0,0,0,1,3.2h0a3.12,3.12,0,0,0,2.47,1h0a3.67,3.67,0,0,0,1.91-.49h0a3.76,3.76,0,0,0,1.3-1.3h0l1.54.83h0a5.29,5.29,0,0,1-1.95,1.83h0a5.68,5.68,0,0,1-2.75.67h0a5.9,5.9,0,0,1-2.68-.62h0a4.6,4.6,0,0,1-1.94-2.05h0A7.34,7.34,0,0,1,145,21h0a7.29,7.29,0,0,1,.77-3.55h0a4.6,4.6,0,0,1,2-2h0a5.8,5.8,0,0,1,2.67-.63Zm-3.53,5.09h6.56a4.49,4.49,0,0,0-.84-2.59h0a2.7,2.7,0,0,0-2.25-1h0a3.32,3.32,0,0,0-2.32.85h0a4.19,4.19,0,0,0-1.15,2.7Zm36.71-9.54v1.52H179V26.92h-1.7V11.86h-4.63V10.34Zm8.68,16.83h0a6,6,0,0,1-3-.71h0a4.93,4.93,0,0,1-2-2.6h0a14.74,14.74,0,0,1-.74-5.18h0a14.46,14.46,0,0,1,.74-5.16h0a4.93,4.93,0,0,1,2-2.6h0a6,6,0,0,1,3-.71h0a5.19,5.19,0,0,1,4.22,1.84h0Q198,13.9,198,18.68h0q0,4.8-1.53,6.65h0a5.19,5.19,0,0,1-4.22,1.84Zm0-1.54h0a3.55,3.55,0,0,0,2.09-.59h0a3.9,3.9,0,0,0,1.36-2.11h0a14.32,14.32,0,0,0,.5-4.25h0a14.26,14.26,0,0,0-.5-4.23h0a3.9,3.9,0,0,0-1.36-2.11h0a3.55,3.55,0,0,0-2.09-.59h0a3.62,3.62,0,0,0-2.12.59h0a3.82,3.82,0,0,0-1.37,2.1h0a14.3,14.3,0,0,0-.49,4.24h0a14.37,14.37,0,0,0,.49,4.25h0A3.85,3.85,0,0,0,190.16,25h0a3.62,3.62,0,0,0,2.12.59Zm13.93-15.29h0a9.57,9.57,0,0,1,3,.42h0a4.25,4.25,0,0,1,2.2,2.24h0a12.79,12.79,0,0,1,.94,5.63h0a12.76,12.76,0,0,1-.94,5.63h0a4.32,4.32,0,0,1-2.2,2.25h0a9.89,9.89,0,0,1-3,.41h-4.06V10.34Zm.41,15.06h0a3.9,3.9,0,0,0,2.3-.6h0a3.55,3.55,0,0,0,1.27-2h0a16.32,16.32,0,0,0,.41-4.13h0a16.32,16.32,0,0,0-.41-4.13h0a3.55,3.55,0,0,0-1.27-2h0a3.9,3.9,0,0,0-2.3-.6h-2.79V25.4Zm14.08,1.77h0a6,6,0,0,1-3-.71h0a4.93,4.93,0,0,1-2-2.6h0a14.74,14.74,0,0,1-.74-5.18h0a14.46,14.46,0,0,1,.74-5.16h0a4.93,4.93,0,0,1,2-2.6h0a6,6,0,0,1,3-.71h0a5.19,5.19,0,0,1,4.22,1.84h0q1.53,1.84,1.53,6.63h0q0,4.8-1.53,6.65h0a5.19,5.19,0,0,1-4.22,1.84Zm0-1.54h0a3.55,3.55,0,0,0,2.09-.59h0a3.9,3.9,0,0,0,1.36-2.11h0a14.32,14.32,0,0,0,.5-4.25h0a14.26,14.26,0,0,0-.5-4.23h0a3.9,3.9,0,0,0-1.36-2.11h0a3.55,3.55,0,0,0-2.09-.59h0a3.62,3.62,0,0,0-2.12.59h0a3.82,3.82,0,0,0-1.37,2.1h0a14.3,14.3,0,0,0-.49,4.24h0a14.37,14.37,0,0,0,.49,4.25h0A3.85,3.85,0,0,0,218.58,25h0a3.62,3.62,0,0,0,2.12.59Z"/></g><g id="b461f2db-0885-4fc3-ab79-b88844ca1600"><path class="cls-3" d="M22.86,35.75,45.75,21l-6.42,3.1v0l0,0-.11.06h0ZM38,24.11,21.59,22.57l-.85,13.76ZM7.29,15,20,36.66l.88-14.19Zm37.18,2.63-5.86-7.27L38,12.46,44.76,18ZM45.66,20l-7.47-6.23,1,9.34ZM30.78,12.86l7.41,8.54-.95-8.59Zm-.72.55-8.24,8.18,16.65,1.56Zm-.53-.67-8.84-2.37.93,10.41Zm-8.66,8.61-.94-10.5L8.54,14.55ZM9.41,13.49l10.4-3.55-3.6-2.62Zm-3-3.6.66,4.59L14.3,7.79Zm10.86-4.7L9,8.19l7.42-2Zm3.41,4.16,9.5,2.58,6.91-.12.62-2.1L33.39,7.32l-8-2.18-6.47-.22L17.19,6.8Z"/></g></svg>